<?xml version="1.0" encoding="UTF-8" standalone="no"?>
<!-- Created with Inkscape (http://www.inkscape.org/) -->

<svg
   xmlns:dc="http://purl.org/dc/elements/1.1/"
   xmlns:cc="http://creativecommons.org/ns#"
   xmlns:rdf="http://www.w3.org/1999/02/22-rdf-syntax-ns#"
   xmlns:svg="http://www.w3.org/2000/svg"
   xmlns="http://www.w3.org/2000/svg"
   xmlns:sodipodi="http://sodipodi.sourceforge.net/DTD/sodipodi-0.dtd"
   xmlns:inkscape="http://www.inkscape.org/namespaces/inkscape"
   width="744.09448819"
   height="1052.3622047"
   id="svg2"
   version="1.1"
   inkscape:version="0.48.2 r9819"
   sodipodi:docname="cobweb.svg">
  <defs
     id="defs4">
    <marker
       inkscape:stockid="Arrow1Mstart"
       orient="auto"
       refY="0.0"
       refX="0.0"
       id="Arrow1Mstart"
       style="overflow:visible">
      <path
         id="path3869"
         d="M 0.0,0.0 L 5.0,-5.0 L -12.5,0.0 L 5.0,5.0 L 0.0,0.0 z "
         style="fill-rule:evenodd;stroke:#000000;stroke-width:1.0pt;marker-start:none"
         transform="scale(0.4) translate(10,0)" />
    </marker>
    <marker
       inkscape:stockid="Arrow2Mend"
       orient="auto"
       refY="0.0"
       refX="0.0"
       id="Arrow2Mend"
       style="overflow:visible;">
      <path
         id="path3890"
         style="font-size:12.0;fill-rule:evenodd;stroke-width:0.62500000;stroke-linejoin:round;"
         d="M 8.7185878,4.0337352 L -2.2072895,0.016013256 L 8.7185884,-4.0017078 C 6.9730900,-1.6296469 6.9831476,1.6157441 8.7185878,4.0337352 z "
         transform="scale(0.6) rotate(180) translate(0,0)" />
    </marker>
    <marker
       inkscape:stockid="Arrow1Lstart"
       orient="auto"
       refY="0.0"
       refX="0.0"
       id="Arrow1Lstart"
       style="overflow:visible">
      <path
         id="path3863"
         d="M 0.0,0.0 L 5.0,-5.0 L -12.5,0.0 L 5.0,5.0 L 0.0,0.0 z "
         style="fill-rule:evenodd;stroke:#000000;stroke-width:1.0pt;marker-start:none"
         transform="scale(0.8) translate(12.5,0)" />
    </marker>
    <marker
       inkscape:stockid="Arrow2Lend"
       orient="auto"
       refY="0.0"
       refX="0.0"
       id="Arrow2Lend"
       style="overflow:visible;">
      <path
         id="path3884"
         style="font-size:12.0;fill-rule:evenodd;stroke-width:0.62500000;stroke-linejoin:round;"
         d="M 8.7185878,4.0337352 L -2.2072895,0.016013256 L 8.7185884,-4.0017078 C 6.9730900,-1.6296469 6.9831476,1.6157441 8.7185878,4.0337352 z "
         transform="scale(1.1) rotate(180) translate(1,0)" />
    </marker>
  </defs>
  <sodipodi:namedview
     id="base"
     pagecolor="#ffffff"
     bordercolor="#666666"
     borderopacity="1.0"
     inkscape:pageopacity="0.0"
     inkscape:pageshadow="2"
     inkscape:zoom="1.4"
     inkscape:cx="230.25757"
     inkscape:cy="419.38114"
     inkscape:document-units="px"
     inkscape:current-layer="layer1"
     showgrid="false"
     inkscape:window-width="1597"
     inkscape:window-height="1005"
     inkscape:window-x="-18"
     inkscape:window-y="0"
     inkscape:window-maximized="0">
    <inkscape:grid
       type="xygrid"
       id="grid2985" />
  </sodipodi:namedview>
  <metadata
     id="metadata7">
    <rdf:RDF>
      <cc:Work
         rdf:about="">
        <dc:format>image/svg+xml</dc:format>
        <dc:type
           rdf:resource="http://purl.org/dc/dcmitype/StillImage" />
        <dc:title />
      </cc:Work>
    </rdf:RDF>
  </metadata>
  <g
     inkscape:label="Layer 1"
     inkscape:groupmode="layer"
     id="layer1">
    <g
       id="g3010"
       style="fill:#000000;stroke:#000000;stroke-opacity:1">
      <path
         sodipodi:nodetypes="ccc"
         inkscape:connector-curvature="0"
         id="path2987"
         d="m 170,652.36218 190,0 60,0"
         style="fill:#000000;stroke:#000000;stroke-width:1px;stroke-linecap:butt;stroke-linejoin:miter;stroke-opacity:1" />
      <path
         sodipodi:type="arc"
         style="fill:#000000;stroke:#000000;stroke-width:0;stroke-miterlimit:4;stroke-opacity:1;stroke-dasharray:none"
         id="path3004"
         sodipodi:cx="470"
         sodipodi:cy="522.36218"
         sodipodi:rx="10"
         sodipodi:ry="10"
         d="m 480,522.36218 a 10,10 0 1 1 -20,0 10,10 0 1 1 20,0 z"
         transform="translate(-140,130)" />
      <path
         transform="translate(-220,130)"
         d="m 480,522.36218 a 10,10 0 1 1 -20,0 10,10 0 1 1 20,0 z"
         sodipodi:ry="10"
         sodipodi:rx="10"
         sodipodi:cy="522.36218"
         sodipodi:cx="470"
         id="path3006"
         style="fill:#000000;stroke:#000000;stroke-width:0;stroke-miterlimit:4;stroke-opacity:1;stroke-dasharray:none"
         sodipodi:type="arc" />
      <path
         sodipodi:type="arc"
         style="fill:#000000;stroke:#000000;stroke-width:0;stroke-miterlimit:4;stroke-opacity:1;stroke-dasharray:none"
         id="path3008"
         sodipodi:cx="470"
         sodipodi:cy="522.36218"
         sodipodi:rx="10"
         sodipodi:ry="10"
         d="m 480,522.36218 a 10,10 0 1 1 -20,0 10,10 0 1 1 20,0 z"
         transform="translate(-300,130)" />
    </g>
    <g
       id="g3016"
       transform="matrix(0.70710678,-0.70710678,0.70710678,0.70710678,-345.84816,485.6309)"
       style="fill:#000000;stroke:#000000;stroke-opacity:1">
      <path
         style="fill:#000000;stroke:#000000;stroke-width:1px;stroke-linecap:butt;stroke-linejoin:miter;stroke-opacity:1"
         d="m 170,652.36218 190,0 60,0"
         id="path3018"
         inkscape:connector-curvature="0"
         sodipodi:nodetypes="ccc" />
      <path
         transform="translate(-140,130)"
         d="m 480,522.36218 c 0,5.52285 -4.47715,10 -10,10 -5.52285,0 -10,-4.47715 -10,-10 0,-5.52284 4.47715,-10 10,-10 5.52285,0 10,4.47716 10,10 z"
         sodipodi:ry="10"
         sodipodi:rx="10"
         sodipodi:cy="522.36218"
         sodipodi:cx="470"
         id="path3020"
         style="fill:#000000;stroke:#000000;stroke-width:0;stroke-miterlimit:4;stroke-opacity:1;stroke-dasharray:none"
         sodipodi:type="arc" />
      <path
         sodipodi:type="arc"
         style="fill:#000000;stroke:#000000;stroke-width:0;stroke-miterlimit:4;stroke-opacity:1;stroke-dasharray:none"
         id="path3022"
         sodipodi:cx="470"
         sodipodi:cy="522.36218"
         sodipodi:rx="10"
         sodipodi:ry="10"
         d="m 480,522.36218 c 0,5.52285 -4.47715,10 -10,10 -5.52285,0 -10,-4.47715 -10,-10 0,-5.52284 4.47715,-10 10,-10 5.52285,0 10,4.47716 10,10 z"
         transform="translate(-220,130)" />
      <path
         transform="translate(-300,130)"
         d="m 480,522.36218 c 0,5.52285 -4.47715,10 -10,10 -5.52285,0 -10,-4.47715 -10,-10 0,-5.52284 4.47715,-10 10,-10 5.52285,0 10,4.47716 10,10 z"
         sodipodi:ry="10"
         sodipodi:rx="10"
         sodipodi:cy="522.36218"
         sodipodi:cx="470"
         id="path3024"
         style="fill:#000000;stroke:#000000;stroke-width:0;stroke-miterlimit:4;stroke-opacity:1;stroke-dasharray:none"
         sodipodi:type="arc" />
    </g>
    <g
       transform="matrix(-0.70710678,-0.70710678,0.70710678,-0.70710678,243.26872,1408.2103)"
       id="g3026"
       style="fill:#000000;stroke:#000000;stroke-opacity:1">
      <path
         sodipodi:nodetypes="ccc"
         inkscape:connector-curvature="0"
         id="path3028"
         d="m 170,652.36218 190,0 60,0"
         style="fill:#000000;stroke:#000000;stroke-width:1px;stroke-linecap:butt;stroke-linejoin:miter;stroke-opacity:1" />
      <path
         sodipodi:type="arc"
         style="fill:#000000;stroke:#000000;stroke-width:0;stroke-miterlimit:4;stroke-opacity:1;stroke-dasharray:none"
         id="path3030"
         sodipodi:cx="470"
         sodipodi:cy="522.36218"
         sodipodi:rx="10"
         sodipodi:ry="10"
         d="m 480,522.36218 c 0,5.52285 -4.47715,10 -10,10 -5.52285,0 -10,-4.47715 -10,-10 0,-5.52284 4.47715,-10 10,-10 5.52285,0 10,4.47716 10,10 z"
         transform="translate(-140,130)" />
      <path
         transform="translate(-220,130)"
         d="m 480,522.36218 c 0,5.52285 -4.47715,10 -10,10 -5.52285,0 -10,-4.47715 -10,-10 0,-5.52284 4.47715,-10 10,-10 5.52285,0 10,4.47716 10,10 z"
         sodipodi:ry="10"
         sodipodi:rx="10"
         sodipodi:cy="522.36218"
         sodipodi:cx="470"
         id="path3032"
         style="fill:#000000;stroke:#000000;stroke-width:0;stroke-miterlimit:4;stroke-opacity:1;stroke-dasharray:none"
         sodipodi:type="arc" />
      <path
         sodipodi:type="arc"
         style="fill:#000000;stroke:#000000;stroke-width:0;stroke-miterlimit:4;stroke-opacity:1;stroke-dasharray:none"
         id="path3034"
         sodipodi:cx="470"
         sodipodi:cy="522.36218"
         sodipodi:rx="10"
         sodipodi:ry="10"
         d="m 480,522.36218 c 0,5.52285 -4.47715,10 -10,10 -5.52285,0 -10,-4.47715 -10,-10 0,-5.52284 4.47715,-10 10,-10 5.52285,0 10,4.47716 10,10 z"
         transform="translate(-300,130)" />
    </g>
    <g
       id="g3036"
       transform="matrix(0,-1,1,0,-242.36218,1072.3622)"
       style="fill:#000000;stroke:#000000;stroke-opacity:1">
      <path
         style="fill:#000000;stroke:#000000;stroke-width:1px;stroke-linecap:butt;stroke-linejoin:miter;stroke-opacity:1"
         d="m 170,652.36218 190,0 60,0"
         id="path3038"
         inkscape:connector-curvature="0"
         sodipodi:nodetypes="ccc" />
      <path
         transform="translate(-140,130)"
         d="m 480,522.36218 c 0,5.52285 -4.47715,10 -10,10 -5.52285,0 -10,-4.47715 -10,-10 0,-5.52284 4.47715,-10 10,-10 5.52285,0 10,4.47716 10,10 z"
         sodipodi:ry="10"
         sodipodi:rx="10"
         sodipodi:cy="522.36218"
         sodipodi:cx="470"
         id="path3040"
         style="fill:#000000;stroke:#000000;stroke-width:0;stroke-miterlimit:4;stroke-opacity:1;stroke-dasharray:none"
         sodipodi:type="arc" />
      <path
         sodipodi:type="arc"
         style="fill:#000000;stroke:#000000;stroke-width:0;stroke-miterlimit:4;stroke-opacity:1;stroke-dasharray:none"
         id="path3042"
         sodipodi:cx="470"
         sodipodi:cy="522.36218"
         sodipodi:rx="10"
         sodipodi:ry="10"
         d="m 480,522.36218 c 0,5.52285 -4.47715,10 -10,10 -5.52285,0 -10,-4.47715 -10,-10 0,-5.52284 4.47715,-10 10,-10 5.52285,0 10,4.47716 10,10 z"
         transform="translate(-220,130)" />
      <path
         transform="translate(-300,130)"
         d="m 480,522.36218 c 0,5.52285 -4.47715,10 -10,10 -5.52285,0 -10,-4.47715 -10,-10 0,-5.52284 4.47715,-10 10,-10 5.52285,0 10,4.47716 10,10 z"
         sodipodi:ry="10"
         sodipodi:rx="10"
         sodipodi:cy="522.36218"
         sodipodi:cx="470"
         id="path3044"
         style="fill:#000000;stroke:#000000;stroke-width:0;stroke-miterlimit:4;stroke-opacity:1;stroke-dasharray:none"
         sodipodi:type="arc" />
    </g>
    <g
       id="g3048"
       transform="matrix(-1,0,0,-1,820,1304.7244)"
       style="fill:#000000;stroke:#000000;stroke-opacity:1">
      <path
         style="fill:#000000;stroke:#000000;stroke-width:1px;stroke-linecap:butt;stroke-linejoin:miter;stroke-opacity:1"
         d="m 170,652.36218 190,0 60,0"
         id="path3050"
         inkscape:connector-curvature="0"
         sodipodi:nodetypes="ccc" />
      <path
         transform="translate(-140,130)"
         d="m 480,522.36218 c 0,5.52285 -4.47715,10 -10,10 -5.52285,0 -10,-4.47715 -10,-10 0,-5.52284 4.47715,-10 10,-10 5.52285,0 10,4.47716 10,10 z"
         sodipodi:ry="10"
         sodipodi:rx="10"
         sodipodi:cy="522.36218"
         sodipodi:cx="470"
         id="path3052"
         style="fill:#000000;stroke:#000000;stroke-width:0;stroke-miterlimit:4;stroke-opacity:1;stroke-dasharray:none"
         sodipodi:type="arc" />
      <path
         sodipodi:type="arc"
         style="fill:#000000;stroke:#000000;stroke-width:0;stroke-miterlimit:4;stroke-opacity:1;stroke-dasharray:none"
         id="path3054"
         sodipodi:cx="470"
         sodipodi:cy="522.36218"
         sodipodi:rx="10"
         sodipodi:ry="10"
         d="m 480,522.36218 c 0,5.52285 -4.47715,10 -10,10 -5.52285,0 -10,-4.47715 -10,-10 0,-5.52284 4.47715,-10 10,-10 5.52285,0 10,4.47716 10,10 z"
         transform="translate(-220,130)" />
      <path
         transform="translate(-300,130)"
         d="m 480,522.36218 c 0,5.52285 -4.47715,10 -10,10 -5.52285,0 -10,-4.47715 -10,-10 0,-5.52284 4.47715,-10 10,-10 5.52285,0 10,4.47716 10,10 z"
         sodipodi:ry="10"
         sodipodi:rx="10"
         sodipodi:cy="522.36218"
         sodipodi:cx="470"
         id="path3056"
         style="fill:#000000;stroke:#000000;stroke-width:0;stroke-miterlimit:4;stroke-opacity:1;stroke-dasharray:none"
         sodipodi:type="arc" />
    </g>
    <g
       transform="matrix(-0.70710678,0.70710678,-0.70710678,-0.70710678,1165.8481,819.0935)"
       id="g3058"
       style="fill:#000000;stroke:#000000;stroke-opacity:1">
      <path
         sodipodi:nodetypes="ccc"
         inkscape:connector-curvature="0"
         id="path3060"
         d="m 170,652.36218 190,0 60,0"
         style="fill:#000000;stroke:#000000;stroke-width:1px;stroke-linecap:butt;stroke-linejoin:miter;stroke-opacity:1" />
      <path
         sodipodi:type="arc"
         style="fill:#000000;stroke:#000000;stroke-width:0;stroke-miterlimit:4;stroke-opacity:1;stroke-dasharray:none"
         id="path3062"
         sodipodi:cx="470"
         sodipodi:cy="522.36218"
         sodipodi:rx="10"
         sodipodi:ry="10"
         d="m 480,522.36218 c 0,5.52285 -4.47715,10 -10,10 -5.52285,0 -10,-4.47715 -10,-10 0,-5.52284 4.47715,-10 10,-10 5.52285,0 10,4.47716 10,10 z"
         transform="translate(-140,130)" />
      <path
         transform="translate(-220,130)"
         d="m 480,522.36218 c 0,5.52285 -4.47715,10 -10,10 -5.52285,0 -10,-4.47715 -10,-10 0,-5.52284 4.47715,-10 10,-10 5.52285,0 10,4.47716 10,10 z"
         sodipodi:ry="10"
         sodipodi:rx="10"
         sodipodi:cy="522.36218"
         sodipodi:cx="470"
         id="path3064"
         style="fill:#000000;stroke:#000000;stroke-width:0;stroke-miterlimit:4;stroke-opacity:1;stroke-dasharray:none"
         sodipodi:type="arc" />
      <path
         sodipodi:type="arc"
         style="fill:#000000;stroke:#000000;stroke-width:0;stroke-miterlimit:4;stroke-opacity:1;stroke-dasharray:none"
         id="path3066"
         sodipodi:cx="470"
         sodipodi:cy="522.36218"
         sodipodi:rx="10"
         sodipodi:ry="10"
         d="m 480,522.36218 c 0,5.52285 -4.47715,10 -10,10 -5.52285,0 -10,-4.47715 -10,-10 0,-5.52284 4.47715,-10 10,-10 5.52285,0 10,4.47716 10,10 z"
         transform="translate(-300,130)" />
    </g>
    <g
       id="g3068"
       transform="matrix(0.70710678,0.70710678,-0.70710678,0.70710678,576.73128,-103.48592)"
       style="fill:#000000;stroke:#000000;stroke-opacity:1">
      <path
         style="fill:#000000;stroke:#000000;stroke-width:1px;stroke-linecap:butt;stroke-linejoin:miter;stroke-opacity:1"
         d="m 170,652.36218 190,0 60,0"
         id="path3070"
         inkscape:connector-curvature="0"
         sodipodi:nodetypes="ccc" />
      <path
         transform="translate(-140,130)"
         d="m 480,522.36218 c 0,5.52285 -4.47715,10 -10,10 -5.52285,0 -10,-4.47715 -10,-10 0,-5.52284 4.47715,-10 10,-10 5.52285,0 10,4.47716 10,10 z"
         sodipodi:ry="10"
         sodipodi:rx="10"
         sodipodi:cy="522.36218"
         sodipodi:cx="470"
         id="path3072"
         style="fill:#000000;stroke:#000000;stroke-width:0;stroke-miterlimit:4;stroke-opacity:1;stroke-dasharray:none"
         sodipodi:type="arc" />
      <path
         sodipodi:type="arc"
         style="fill:#000000;stroke:#000000;stroke-width:0;stroke-miterlimit:4;stroke-opacity:1;stroke-dasharray:none"
         id="path3074"
         sodipodi:cx="470"
         sodipodi:cy="522.36218"
         sodipodi:rx="10"
         sodipodi:ry="10"
         d="m 480,522.36218 c 0,5.52285 -4.47715,10 -10,10 -5.52285,0 -10,-4.47715 -10,-10 0,-5.52284 4.47715,-10 10,-10 5.52285,0 10,4.47716 10,10 z"
         transform="translate(-220,130)" />
      <path
         transform="translate(-300,130)"
         d="m 480,522.36218 c 0,5.52285 -4.47715,10 -10,10 -5.52285,0 -10,-4.47715 -10,-10 0,-5.52284 4.47715,-10 10,-10 5.52285,0 10,4.47716 10,10 z"
         sodipodi:ry="10"
         sodipodi:rx="10"
         sodipodi:cy="522.36218"
         sodipodi:cx="470"
         id="path3076"
         style="fill:#000000;stroke:#000000;stroke-width:0;stroke-miterlimit:4;stroke-opacity:1;stroke-dasharray:none"
         sodipodi:type="arc" />
    </g>
    <g
       transform="matrix(0,1,-1,0,1062.3622,232.36218)"
       id="g3078"
       style="fill:#000000;stroke:#000000;stroke-opacity:1">
      <path
         sodipodi:nodetypes="ccc"
         inkscape:connector-curvature="0"
         id="path3080"
         d="m 170,652.36218 190,0 60,0"
         style="fill:#000000;stroke:#000000;stroke-width:1px;stroke-linecap:butt;stroke-linejoin:miter;stroke-opacity:1" />
      <path
         sodipodi:type="arc"
         style="fill:#000000;stroke:#000000;stroke-width:0;stroke-miterlimit:4;stroke-opacity:1;stroke-dasharray:none"
         id="path3082"
         sodipodi:cx="470"
         sodipodi:cy="522.36218"
         sodipodi:rx="10"
         sodipodi:ry="10"
         d="m 480,522.36218 c 0,5.52285 -4.47715,10 -10,10 -5.52285,0 -10,-4.47715 -10,-10 0,-5.52284 4.47715,-10 10,-10 5.52285,0 10,4.47716 10,10 z"
         transform="translate(-140,130)" />
      <path
         transform="translate(-220,130)"
         d="m 480,522.36218 c 0,5.52285 -4.47715,10 -10,10 -5.52285,0 -10,-4.47715 -10,-10 0,-5.52284 4.47715,-10 10,-10 5.52285,0 10,4.47716 10,10 z"
         sodipodi:ry="10"
         sodipodi:rx="10"
         sodipodi:cy="522.36218"
         sodipodi:cx="470"
         id="path3084"
         style="fill:#000000;stroke:#000000;stroke-width:0;stroke-miterlimit:4;stroke-opacity:1;stroke-dasharray:none"
         sodipodi:type="arc" />
      <path
         sodipodi:type="arc"
         style="fill:#000000;stroke:#000000;stroke-width:0;stroke-miterlimit:4;stroke-opacity:1;stroke-dasharray:none"
         id="path3086"
         sodipodi:cx="470"
         sodipodi:cy="522.36218"
         sodipodi:rx="10"
         sodipodi:ry="10"
         d="m 480,522.36218 c 0,5.52285 -4.47715,10 -10,10 -5.52285,0 -10,-4.47715 -10,-10 0,-5.52284 4.47715,-10 10,-10 5.52285,0 10,4.47716 10,10 z"
         transform="translate(-300,130)" />
    </g>
    <path
       sodipodi:type="arc"
       style="fill:#000000;stroke:#7f7f7f;stroke-width:0;stroke-miterlimit:4;stroke-opacity:1;stroke-dasharray:none"
       id="path3002"
       sodipodi:cx="470"
       sodipodi:cy="522.36218"
       sodipodi:rx="10"
       sodipodi:ry="10"
       d="m 480,522.36218 a 10,10 0 1 1 -20,0 10,10 0 1 1 20,0 z"
       transform="translate(-60,130)" />
  </g>
</svg>
